<svg xmlns="http://www.w3.org/2000/svg" viewBox="0 0 100 100">
  <rect x="10" y="28" width="60" height="44" rx="5" fill="#1a1a1a"/>
  <rect x="10" y="18" width="16" height="14" rx="8" fill="#1a1a1a"/>
  <rect x="30" y="18" width="16" height="14" rx="8" fill="#1a1a1a"/>
  <rect x="10" y="70" width="60" height="7" rx="0" fill="#333"/>
  <rect x="13" y="71" width="5" height="5" rx="1" fill="white"/>
  <rect x="22" y="71" width="5" height="5" rx="1" fill="white"/>
  <rect x="31" y="71" width="5" height="5" rx="1" fill="white"/>
  <rect x="40" y="71" width="5" height="5" rx="1" fill="white"/>
  <rect x="49" y="71" width="5" height="5" rx="1" fill="white"/>
  <rect x="58" y="71" width="5" height="5" rx="1" fill="white"/>
  <circle cx="34" cy="48" r="13" fill="#333"/>
  <circle cx="34" cy="48" r="8" fill="#555"/>
  <polygon points="30,43 30,53 40,48" fill="white"/>
  <polygon points="72,32 88,22 88,58 72,48" fill="#1a1a1a"/>
</svg>
