<svg xmlns="http://www.w3.org/2000/svg" viewBox="0 0 100 100">
  <rect width="100" height="100" rx="12" fill="#c0392b"/>
  <rect x="15" y="30" width="52" height="40" rx="5" fill="#1a1a1a"/>
  <rect x="15" y="24" width="14" height="10" rx="7" fill="#1a1a1a"/>
  <rect x="33" y="24" width="14" height="10" rx="7" fill="#1a1a1a"/>
  <rect x="15" y="68" width="52" height="6" rx="0" fill="#333"/>
  <rect x="18" y="69" width="5" height="4" rx="1" fill="#c0392b"/>
  <rect x="27" y="69" width="5" height="4" rx="1" fill="#c0392b"/>
  <rect x="36" y="69" width="5" height="4" rx="1" fill="#c0392b"/>
  <rect x="45" y="69" width="5" height="4" rx="1" fill="#c0392b"/>
  <rect x="54" y="69" width="5" height="4" rx="1" fill="#c0392b"/>
  <circle cx="36" cy="48" r="12" fill="#333"/>
  <circle cx="36" cy="48" r="7" fill="#555"/>
  <polygon points="33,44 33,52 41,48" fill="white"/>
  <polygon points="68,33 84,24 84,56 68,47" fill="#1a1a1a"/>
</svg>
